<svg>
<symbol id="linked_icon" viewBox="0 0 32 32" xmlns="http://www.w3.org/2000/svg">
<path fill-rule="evenodd" clip-rule="evenodd" d="M0 16C0 24.8202 7.17648 32 16 32C24.8202 32 32 24.8202 32 16C32 7.17982 24.8202 0 16 0C7.17984 0 0 7.17982 0 16ZM5.94191 4.96936C8.59784 2.54552 12.1292 1.06554 16 1.06554C19.8696 1.06554 23.4 2.54462 26.0557 4.96715L24.8681 6.1547C22.5199 4.03823 19.4105 2.75 16 2.75C12.5883 2.75 9.47794 4.03912 7.12944 6.15689L5.94191 4.96936ZM4.96751 5.94395C2.54476 8.59964 1.06554 12.1302 1.06554 16C1.06554 19.8694 2.54451 23.3997 4.96688 26.0553L6.15441 24.8678C4.03812 22.5196 2.75 19.4104 2.75 16C2.75 12.5893 4.03837 9.47974 6.15505 7.13149L4.96751 5.94395ZM5.94122 27.03C8.59723 29.4542 12.1289 30.9344 16 30.9344C19.8692 30.9344 23.3992 29.4557 26.0548 27.0337L24.8672 25.8461C22.5191 27.9621 19.4101 29.25 16 29.25C12.5879 29.25 9.47731 27.9606 7.12874 25.8425L5.94122 27.03ZM30.9345 16C30.9345 19.8714 29.454 23.4033 27.0295 26.0593L25.842 24.8718C27.9604 22.5232 29.25 19.4123 29.25 16C29.25 12.5881 27.9607 9.47761 25.8428 7.12907L27.0303 5.94154C29.4543 8.5975 30.9345 12.129 30.9345 16Z"/>
<path d="M9.875 10.7524C9.875 10.2678 10.2777 9.875 10.7746 9.875H21.2254C21.7223 9.875 22.125 10.2678 22.125 10.7524V21.2476C22.125 21.7322 21.7223 22.125 21.2254 22.125H10.7746C10.2777 22.125 9.875 21.7322 9.875 21.2476V10.7524ZM13.6595 20.1298V14.5981H11.8212V20.1298H13.6595ZM12.7407 13.8425C13.3816 13.8425 13.7805 13.4183 13.7805 12.887C13.769 12.3441 13.3823 11.9315 12.753 11.9315C12.1236 11.9315 11.7125 12.3449 11.7125 12.887C11.7125 13.4183 12.1114 13.8425 12.7285 13.8425H12.7407ZM16.4984 20.1298V17.0405C16.4984 16.8751 16.5107 16.7097 16.5597 16.5918C16.6921 16.2618 16.9945 15.9196 17.5029 15.9196C18.1683 15.9196 18.4339 16.4265 18.4339 17.1706V20.1298H20.2722V16.957C20.2722 15.2573 19.3657 14.4672 18.156 14.4672C17.1806 14.4672 16.7434 15.0032 16.4984 15.3806V15.3998H16.4862C16.4902 15.3934 16.4943 15.387 16.4984 15.3806V14.5981H14.6609C14.6839 15.1172 14.6609 20.1298 14.6609 20.1298H16.4984Z" fill="#110A1D"/>
</symbol>

<symbol id="twitter_icon" viewBox="0 0 32 32" xmlns="http://www.w3.org/2000/svg">
<path fill-rule="evenodd" clip-rule="evenodd" d="M0 16C0 24.8202 7.17648 32 16 32C24.8202 32 32 24.8202 32 16C32 7.17982 24.8202 0 16 0C7.17984 0 0 7.17982 0 16ZM5.94191 4.96936C8.59784 2.54552 12.1292 1.06554 16 1.06554C19.8696 1.06554 23.4 2.54462 26.0557 4.96715L24.8681 6.1547C22.5199 4.03823 19.4105 2.75 16 2.75C12.5883 2.75 9.47794 4.03912 7.12944 6.15689L5.94191 4.96936ZM4.96751 5.94395C2.54476 8.59964 1.06554 12.1302 1.06554 16C1.06554 19.8694 2.54451 23.3997 4.96688 26.0553L6.15441 24.8678C4.03812 22.5196 2.75 19.4104 2.75 16C2.75 12.5893 4.03837 9.47974 6.15505 7.13149L4.96751 5.94395ZM5.94122 27.03C8.59723 29.4542 12.1289 30.9344 16 30.9344C19.8692 30.9344 23.3992 29.4557 26.0548 27.0337L24.8672 25.8461C22.5191 27.9621 19.4101 29.25 16 29.25C12.5879 29.25 9.47731 27.9606 7.12874 25.8425L5.94122 27.03ZM30.9345 16C30.9345 19.8714 29.454 23.4033 27.0295 26.0593L25.842 24.8718C27.9604 22.5232 29.25 19.4123 29.25 16C29.25 12.5881 27.9607 9.47761 25.8428 7.12907L27.0303 5.94154C29.4543 8.5975 30.9345 12.129 30.9345 16Z"/>
<path fill="#110A1D" d="M21.312 13.539v.374c0 3.768-2.754 8.087-7.791 8.087a7.416 7.416 0 0 1-4.188-1.291 5.366 5.366 0 0 0 4.054-1.171 2.66 2.66 0 0 1-1.587-.56 2.83 2.83 0 0 1-.971-1.42c.17.037.344.056.519.056.243 0 .486-.034.72-.101a2.712 2.712 0 0 1-1.578-.985 2.902 2.902 0 0 1-.616-1.803v-.037c.38.22.805.34 1.24.351a2.823 2.823 0 0 1-1.15-1.705 2.92 2.92 0 0 1 .288-2.06 7.84 7.84 0 0 0 2.52 2.11c.974.513 2.04.806 3.13.862a2.479 2.479 0 0 1-.075-.651c-.02-.58.132-1.154.437-1.64a2.746 2.746 0 0 1 1.265-1.083 2.626 2.626 0 0 1 1.634-.132 2.703 2.703 0 0 1 1.41.867 5.493 5.493 0 0 0 1.74-.692 2.844 2.844 0 0 1-1.221 1.598 5.563 5.563 0 0 0 1.575-.471 5.74 5.74 0 0 1-1.355 1.497Z"/>
</symbol>

<symbol id="facebook_icon" viewBox="0 0 32 32" xmlns="http://www.w3.org/2000/svg">
<path fill-rule="evenodd" clip-rule="evenodd" d="M0 16C0 24.8202 7.17648 32 16 32C24.8202 32 32 24.8202 32 16C32 7.17982 24.8202 0 16 0C7.17984 0 0 7.17982 0 16ZM5.94191 4.96936C8.59784 2.54552 12.1292 1.06554 16 1.06554C19.8696 1.06554 23.4 2.54462 26.0557 4.96715L24.8681 6.1547C22.5199 4.03823 19.4105 2.75 16 2.75C12.5883 2.75 9.47794 4.03912 7.12944 6.15689L5.94191 4.96936ZM4.96751 5.94395C2.54476 8.59964 1.06554 12.1302 1.06554 16C1.06554 19.8694 2.54451 23.3997 4.96688 26.0553L6.15441 24.8678C4.03812 22.5196 2.75 19.4104 2.75 16C2.75 12.5893 4.03837 9.47974 6.15505 7.13149L4.96751 5.94395ZM5.94122 27.03C8.59723 29.4542 12.1289 30.9344 16 30.9344C19.8692 30.9344 23.3992 29.4557 26.0548 27.0337L24.8672 25.8461C22.5191 27.9621 19.4101 29.25 16 29.25C12.5879 29.25 9.47731 27.9606 7.12874 25.8425L5.94122 27.03ZM30.9345 16C30.9345 19.8714 29.454 23.4033 27.0295 26.0593L25.842 24.8718C27.9604 22.5232 29.25 19.4123 29.25 16C29.25 12.5881 27.9607 9.47761 25.8428 7.12907L27.0303 5.94154C29.4543 8.5975 30.9345 12.129 30.9345 16Z"/>
    <path fill="#110A1D" d="M18.073 11.547h1.254v-2.12a17.407 17.407 0 0 0-1.827-.093c-1.813 0-3.053 1.106-3.053 3.133v1.746H12.4v2.374h2.047v6.08H16.9v-6.08h2.04l.307-2.373H16.9V12.7c0-.7.187-1.153 1.173-1.153Z"/>
</symbol>

<symbol id="inst_icon" viewBox="0 0 32 32" xmlns="http://www.w3.org/2000/svg">
<path fill-rule="evenodd" clip-rule="evenodd" d="M0 16C0 24.8202 7.17648 32 16 32C24.8202 32 32 24.8202 32 16C32 7.17982 24.8202 0 16 0C7.17984 0 0 7.17982 0 16ZM5.94191 4.96936C8.59784 2.54552 12.1292 1.06554 16 1.06554C19.8696 1.06554 23.4 2.54462 26.0557 4.96715L24.8681 6.1547C22.5199 4.03823 19.4105 2.75 16 2.75C12.5883 2.75 9.47794 4.03912 7.12944 6.15689L5.94191 4.96936ZM4.96751 5.94395C2.54476 8.59964 1.06554 12.1302 1.06554 16C1.06554 19.8694 2.54451 23.3997 4.96688 26.0553L6.15441 24.8678C4.03812 22.5196 2.75 19.4104 2.75 16C2.75 12.5893 4.03837 9.47974 6.15505 7.13149L4.96751 5.94395ZM5.94122 27.03C8.59723 29.4542 12.1289 30.9344 16 30.9344C19.8692 30.9344 23.3992 29.4557 26.0548 27.0337L24.8672 25.8461C22.5191 27.9621 19.4101 29.25 16 29.25C12.5879 29.25 9.47731 27.9606 7.12874 25.8425L5.94122 27.03ZM30.9345 16C30.9345 19.8714 29.454 23.4033 27.0295 26.0593L25.842 24.8718C27.9604 22.5232 29.25 19.4123 29.25 16C29.25 12.5881 27.9607 9.47761 25.8428 7.12907L27.0303 5.94154C29.4543 8.5975 30.9345 12.129 30.9345 16Z"/>
    <path fill="#110A1D" d="M16 9.5c1.766 0 1.986.007 2.68.039.692.033 1.163.141 1.578.302.428.165.79.389 1.151.75.33.325.587.718.75 1.152.16.413.27.885.302 1.578.03.693.039.913.039 2.679 0 1.766-.006 1.986-.039 2.68-.032.692-.142 1.163-.302 1.578a3.174 3.174 0 0 1-.75 1.151c-.325.33-.718.586-1.151.75-.415.16-.886.27-1.579.302-.693.03-.913.039-2.679.039-1.766 0-1.986-.006-2.68-.039-.692-.032-1.163-.142-1.578-.302a3.178 3.178 0 0 1-1.151-.75 3.188 3.188 0 0 1-.75-1.151c-.16-.415-.27-.886-.302-1.579-.03-.693-.039-.913-.039-2.679 0-1.766.007-1.986.039-2.68.033-.692.141-1.163.302-1.578a3.17 3.17 0 0 1 .75-1.151 3.183 3.183 0 0 1 1.152-.75c.414-.16.885-.27 1.578-.302.693-.03.913-.039 2.679-.039Zm0 3.25a3.25 3.25 0 1 0 0 6.5 3.25 3.25 0 0 0 0-6.5Zm4.225-.162a.812.812 0 1 0-1.624 0 .812.812 0 0 0 1.624 0ZM16 14.05a1.95 1.95 0 1 1 0 3.9 1.95 1.95 0 0 1 0-3.9Z"/>
</symbol>

<symbol id="youtube_icon" viewBox="0 0 32 32" xmlns="http://www.w3.org/2000/svg">
<path fill-rule="evenodd" clip-rule="evenodd" d="M0 16C0 24.8202 7.17648 32 16 32C24.8202 32 32 24.8202 32 16C32 7.17982 24.8202 0 16 0C7.17984 0 0 7.17982 0 16ZM5.94191 4.96936C8.59784 2.54552 12.1292 1.06554 16 1.06554C19.8696 1.06554 23.4 2.54462 26.0557 4.96715L24.8681 6.1547C22.5199 4.03823 19.4105 2.75 16 2.75C12.5883 2.75 9.47794 4.03912 7.12944 6.15689L5.94191 4.96936ZM4.96751 5.94395C2.54476 8.59964 1.06554 12.1302 1.06554 16C1.06554 19.8694 2.54451 23.3997 4.96688 26.0553L6.15441 24.8678C4.03812 22.5196 2.75 19.4104 2.75 16C2.75 12.5893 4.03837 9.47974 6.15505 7.13149L4.96751 5.94395ZM5.94122 27.03C8.59723 29.4542 12.1289 30.9344 16 30.9344C19.8692 30.9344 23.3992 29.4557 26.0548 27.0337L24.8672 25.8461C22.5191 27.9621 19.4101 29.25 16 29.25C12.5879 29.25 9.47731 27.9606 7.12874 25.8425L5.94122 27.03ZM30.9345 16C30.9345 19.8714 29.454 23.4033 27.0295 26.0593L25.842 24.8718C27.9604 22.5232 29.25 19.4123 29.25 16C29.25 12.5881 27.9607 9.47761 25.8428 7.12907L27.0303 5.94154C29.4543 8.5975 30.9345 12.129 30.9345 16Z"/>
    <path fill="#110A1D" d="m14.667 18 3.46-2-3.46-2v4Zm7.706-5.22c.087.313.147.733.187 1.267.047.533.067.993.067 1.393l.04.56c0 1.46-.107 2.533-.294 3.22-.166.6-.553.987-1.153 1.153-.313.087-.887.147-1.767.187a44.09 44.09 0 0 1-2.393.067l-1.06.04c-2.793 0-4.533-.107-5.22-.294-.6-.166-.987-.553-1.153-1.153-.087-.313-.147-.733-.187-1.267a16.042 16.042 0 0 1-.067-1.393l-.04-.56c0-1.46.107-2.533.294-3.22.166-.6.553-.987 1.153-1.153.313-.087.887-.147 1.767-.187a44.09 44.09 0 0 1 2.393-.067l1.06-.04c2.793 0 4.533.107 5.22.294.6.166.987.553 1.153 1.153Z"/>
</symbol>

<symbol id="tt_icon" viewBox="0 0 32 32" xmlns="http://www.w3.org/2000/svg">
<path fill-rule="evenodd" clip-rule="evenodd" d="M0 16C0 24.8202 7.17648 32 16 32C24.8202 32 32 24.8202 32 16C32 7.17982 24.8202 0 16 0C7.17984 0 0 7.17982 0 16ZM5.94191 4.96936C8.59784 2.54552 12.1292 1.06554 16 1.06554C19.8696 1.06554 23.4 2.54462 26.0557 4.96715L24.8681 6.1547C22.5199 4.03823 19.4105 2.75 16 2.75C12.5883 2.75 9.47794 4.03912 7.12944 6.15689L5.94191 4.96936ZM4.96751 5.94395C2.54476 8.59964 1.06554 12.1302 1.06554 16C1.06554 19.8694 2.54451 23.3997 4.96688 26.0553L6.15441 24.8678C4.03812 22.5196 2.75 19.4104 2.75 16C2.75 12.5893 4.03837 9.47974 6.15505 7.13149L4.96751 5.94395ZM5.94122 27.03C8.59723 29.4542 12.1289 30.9344 16 30.9344C19.8692 30.9344 23.3992 29.4557 26.0548 27.0337L24.8672 25.8461C22.5191 27.9621 19.4101 29.25 16 29.25C12.5879 29.25 9.47731 27.9606 7.12874 25.8425L5.94122 27.03ZM30.9345 16C30.9345 19.8714 29.454 23.4033 27.0295 26.0593L25.842 24.8718C27.9604 22.5232 29.25 19.4123 29.25 16C29.25 12.5881 27.9607 9.47761 25.8428 7.12907L27.0303 5.94154C29.4543 8.5975 30.9345 12.129 30.9345 16Z"/>
    <path fill="#110A1D" fill-rule="evenodd" d="M17.012 9.925c.373 0 .675.302.675.675a2.7 2.7 0 0 0 2.7 2.7.675.675 0 1 1 0 1.35 4.05 4.05 0 0 1-2.7-1.032V18.7a3.375 3.375 0 1 1-3.375-3.375.675.675 0 1 1 0 1.35 2.025 2.025 0 1 0 2.025 2.025v-8.1c0-.373.303-.675.675-.675Z" clip-rule="evenodd"/>
</symbol>

<symbol id="tg_icon" viewBox="0 0 32 32" xmlns="http://www.w3.org/2000/svg">
<path fill-rule="evenodd" clip-rule="evenodd" d="M0 16C0 24.8202 7.17648 32 16 32C24.8202 32 32 24.8202 32 16C32 7.17982 24.8202 0 16 0C7.17984 0 0 7.17982 0 16ZM5.94191 4.96936C8.59784 2.54552 12.1292 1.06554 16 1.06554C19.8696 1.06554 23.4 2.54462 26.0557 4.96715L24.8681 6.1547C22.5199 4.03823 19.4105 2.75 16 2.75C12.5883 2.75 9.47794 4.03912 7.12944 6.15689L5.94191 4.96936ZM4.96751 5.94395C2.54476 8.59964 1.06554 12.1302 1.06554 16C1.06554 19.8694 2.54451 23.3997 4.96688 26.0553L6.15441 24.8678C4.03812 22.5196 2.75 19.4104 2.75 16C2.75 12.5893 4.03837 9.47974 6.15505 7.13149L4.96751 5.94395ZM5.94122 27.03C8.59723 29.4542 12.1289 30.9344 16 30.9344C19.8692 30.9344 23.3992 29.4557 26.0548 27.0337L24.8672 25.8461C22.5191 27.9621 19.4101 29.25 16 29.25C12.5879 29.25 9.47731 27.9606 7.12874 25.8425L5.94122 27.03ZM30.9345 16C30.9345 19.8714 29.454 23.4033 27.0295 26.0593L25.842 24.8718C27.9604 22.5232 29.25 19.4123 29.25 16C29.25 12.5881 27.9607 9.47761 25.8428 7.12907L27.0303 5.94154C29.4543 8.5975 30.9345 12.129 30.9345 16Z"/>
    <path fill="#110A1D" d="M20.644 11.132s1.133-.442 1.038.631c-.031.442-.314 1.989-.535 3.662l-.755 4.955s-.063.726-.63.852c-.566.126-1.416-.442-1.574-.568-.126-.095-2.36-1.515-3.147-2.21-.221-.189-.473-.567.031-1.01l3.305-3.156c.378-.378.755-1.262-.819-.189l-4.407 2.998s-.503.316-1.447.032l-2.047-.631s-.755-.474.535-.947c3.148-1.483 7.02-2.998 10.451-4.419Z"/>
</symbol>

<symbol id="vk_icon" viewBox="0 0 32 32" xmlns="http://www.w3.org/2000/svg">
<path fill-rule="evenodd" clip-rule="evenodd" d="M0 16C0 24.8202 7.17648 32 16 32C24.8202 32 32 24.8202 32 16C32 7.17982 24.8202 0 16 0C7.17984 0 0 7.17982 0 16ZM5.94191 4.96936C8.59784 2.54552 12.1292 1.06554 16 1.06554C19.8696 1.06554 23.4 2.54462 26.0557 4.96715L24.8681 6.1547C22.5199 4.03823 19.4105 2.75 16 2.75C12.5883 2.75 9.47794 4.03912 7.12944 6.15689L5.94191 4.96936ZM4.96751 5.94395C2.54476 8.59964 1.06554 12.1302 1.06554 16C1.06554 19.8694 2.54451 23.3997 4.96688 26.0553L6.15441 24.8678C4.03812 22.5196 2.75 19.4104 2.75 16C2.75 12.5893 4.03837 9.47974 6.15505 7.13149L4.96751 5.94395ZM5.94122 27.03C8.59723 29.4542 12.1289 30.9344 16 30.9344C19.8692 30.9344 23.3992 29.4557 26.0548 27.0337L24.8672 25.8461C22.5191 27.9621 19.4101 29.25 16 29.25C12.5879 29.25 9.47731 27.9606 7.12874 25.8425L5.94122 27.03ZM30.9345 16C30.9345 19.8714 29.454 23.4033 27.0295 26.0593L25.842 24.8718C27.9604 22.5232 29.25 19.4123 29.25 16C29.25 12.5881 27.9607 9.47761 25.8428 7.12907L27.0303 5.94154C29.4543 8.5975 30.9345 12.129 30.9345 16Z"/>
    <path fill="#110A1D" d="M12 17.6c-.987-1.45-1.58-3.222-1.984-4.52h1.564c.096.215.192.436.288.659.307.705.62 1.428.952 2.03.236.43.492.821.778 1.119.287.297.623.521 1.017.57a.31.31 0 0 0 .252-.084.349.349 0 0 0 .107-.254V13.7a.352.352 0 0 0-.071-.214l-.31-.405h2.078v3.576c0 .127.067.244.174.302a.308.308 0 0 0 .335-.025c.734-.553 1.212-1.244 1.607-1.948.159-.283.307-.573.45-.856l.103-.199c.15-.293.3-.577.462-.85h1.512c-.394 1.267-1.044 2.201-1.726 3.181l-.264.382a.354.354 0 0 0 .053.46 9.58 9.58 0 0 1 2.239 2.963H19.92a7.05 7.05 0 0 1-.503-.557 35.681 35.681 0 0 1-.11-.132 11.327 11.327 0 0 0-.488-.567c-.438-.464-.97-.87-1.777-1a.31.31 0 0 0-.259.078.349.349 0 0 0-.112.258V20.1c-2.154.182-3.622-.96-4.671-2.5Z"/>
</symbol>

<symbol id="world_icon" xmlns="http://www.w3.org/2000/svg">
  <path fill="#9DADF2" d="M14.17 3.719C12.798 1.84 11 .775 8.635.5a11.684 11.684 0 0 1 2.354 4.22c1.106-.229 2.154-.527 3.18-1.001ZM4.25 5.523c-.42-.11-.828-.217-1.23-.341-.36-.116-.714-.249-1.068-.381-.2-.075-.4-.15-.601-.222C.162 6.67.274 9.636 1.345 11.386c.599-.188 1.193-.377 1.792-.567h.001l1.633-.516a11.48 11.48 0 0 1 .006-4.641 76.544 76.544 0 0 0-.527-.14Zm8.696-.365-1.716.545c.316 1.533.304 3.09 0 4.594 1.16.369 2.29.726 3.431 1.083 1.125-1.926 1.113-4.852 0-6.766l-1.715.544ZM5.72 10.227a10.424 10.424 0 0 1-.018-4.401c.239.014.473.03.705.047.54.038 1.066.076 1.59.076.525 0 1.05-.038 1.59-.076.232-.016.467-.033.706-.047.322 1.434.31 2.903-.006 4.395a16.81 16.81 0 0 0-4.568.006Zm8.45 2.048c-1.36 1.879-3.163 2.938-5.529 3.225 1.09-1.276 1.868-2.657 2.343-4.214 1.1.21 2.143.527 3.185.99ZM7.359.5c-2.366.28-4.17 1.346-5.575 3.283 1.101.34 2.138.662 3.21.995C5.49 3.157 6.263 1.782 7.358.5Zm0 15c-2.36-.28-4.158-1.34-5.575-3.283l1.037-.32h.001l2.171-.67A11.673 11.673 0 0 0 7.36 15.5ZM10.04 4.86a10.412 10.412 0 0 0-2.043-3.664C7.06 2.303 6.381 3.496 5.96 4.86a15.13 15.13 0 0 0 4.082 0Zm-2.037 9.943a10.336 10.336 0 0 1-2.044-3.657c1.365-.193 2.7-.188 4.088-.006a10.567 10.567 0 0 1-2.044 3.663Z"/>
</symbol>

</svg>
